<svg id="Layer_1" data-name="Layer 1" xmlns="http://www.w3.org/2000/svg" viewBox="0 -50 481 362.6"><defs><style>.cls-1{fill:#fff;stroke:#fff;stroke-miterlimit:10;}</style></defs><title>Untitled-1</title><path class="cls-1" d="M103.05,240.15c-7.24,9-13.8,18.13-17.81,28.76-3.17,8.4-4.31,17-1.69,25.83a40.84,40.84,0,0,0,6.94,13.53c0.83-.54,1.51-1,2.18-1.42,0.82-.57,1.63-1.15,2.42-1.76,9.93-7.68,14.87-17.8,15-30.36C110.24,262.81,106.75,251.66,103.05,240.15ZM268.59,390.61c7.1,12.46,17.72,19.09,31.79,20.31a78.17,78.17,0,0,0,22.13-1.52c4.47-.89,8.89-2,13.67-3.08l-2.44-2.14c-7.4-6.55-15-12.78-24-17.11C295.41,380.17,281.77,381.39,268.59,390.61Zm216-120.6c-3.87,0-7.6-.12-11.32,0a81.33,81.33,0,0,0-21,3.38c-11.64,3.59-20.4,10.52-25.06,22-1.08,2.68-1.84,5.49-2.77,8.33,13.56,4.28,25.68,2.2,36.72-6.11C471.13,290.22,478.07,280.26,484.62,270ZM61.24,208.06a7.42,7.42,0,0,0,1.17-.08c14.8-3.52,24.7-12.35,29.34-27C95,170.67,95.5,160,95.83,149.24a6.7,6.7,0,0,0-.15-1c-2.9,1.92-5.64,3.66-8.3,5.51-8.66,6-16.73,12.68-22.38,21.79C58.67,185.76,57.68,196.62,61.24,208.06Zm170.1,167.8c-0.3-2.46-.51-4.81-0.89-7.14a35.58,35.58,0,0,0-13.88-23.37c-11.23-8.52-24.59-11.33-38-14.22a1.46,1.46,0,0,0,0,.47c4,10,8.38,19.75,15.09,28.27C203.17,372,215.41,377.81,231.34,375.86Zm-108-106.76c-2.78,6.19-5.56,11.78-7.84,17.56-3.88,9.86-6.25,20-4.18,30.7,1.65,8.52,6.1,15.42,12.46,21.28,10.15-9.07,15.13-20.17,13.55-33.71C135.84,292,129.87,280.8,123.34,269.1ZM403,239.65c-1,3.19-1.94,5.94-2.75,8.74-2.94,10.16-5.25,20.39-3.94,31.11,1.56,12.76,8.65,21.68,19.2,28.3a38.22,38.22,0,0,0,7.57-31.61C419.91,262.19,411.81,251,403,239.65ZM73.2,259.34a1.46,1.46,0,0,0,.33,0l1.5-.76c14.15-7.2,21.43-18.84,21.88-34.61a121.37,121.37,0,0,0-.79-16.25c-0.51-4.79-1.62-9.52-2.53-14.63-8.83,9-17.08,17.88-22.23,29.17C65.58,234.9,66.18,247.23,73.2,259.34ZM55.72,231.29c0.54-3.22,1.17-6.31,1.56-9.44,1.28-10.29-1.83-19.32-8.22-27.31-5.85-7.32-13.33-12.71-21.2-17.62-2.61-1.63-5.28-3.18-8.42-5.07C20,177.21,20.34,182,21,186.74c1.16,8.94,3.27,17.61,7.75,25.55C34.64,222.79,43.72,228.79,55.72,231.29Zm389.38-23.45c0.59-4,1.46-7.68,1.65-11.43,0.55-11.09-3.89-20.37-11.08-28.5s-15.79-14.09-24.81-19.72c-0.17-.11-0.41-0.11-0.3-0.08,0,3.65-.19,7.28,0,10.88,0.55,8.79,1.76,17.46,5.19,25.68C421.19,197.6,431.14,204.79,445.11,207.84ZM437.78,62l-0.63-.14c-3.21,7.48-6.73,14.84-9.55,22.47a47,47,0,0,0-2.91,21.11c1.06,10.63,6.45,18.72,14.17,25.65,11.32-10.76,14.62-23.78,11.49-38.67C448.06,81.52,443.13,71.68,437.78,62ZM327.66,330.65l-4.17.89c-9.4,2-18.66,4.42-27.21,9-8.23,4.38-14.73,10.43-18.32,19.23a45.13,45.13,0,0,0-3.14,15.81c4.59,0.24,9,.42,13.38-0.44,10.13-2,17.83-7.7,24.1-15.62C319.11,350.9,323.52,341,327.66,330.65ZM419,103.93c1.7-12.7-1.39-23.61-10-32.86-6-6.4-13.18-11-20.88-14.95-4.12-2.1-8.36-3.95-12.55-5.91l-0.41.36c1.45,6.16,2.68,12.38,4.4,18.47,2.25,8,5.49,15.49,10.95,21.88C397.94,99.65,407.66,103.31,419,103.93ZM314.66,376.49A40.24,40.24,0,0,0,328,389.06c7.95,4.45,16.52,5.51,25.49,4.73,10.26-.89,19.94-3.94,29.8-7.43-9.81-7.29-19.46-14.33-31.09-17.95a37.15,37.15,0,0,0-20.82-.86A43.31,43.31,0,0,0,314.66,376.49ZM87,104.44c0.73-.08,1.29-0.16,1.84-0.2,15.22-1.13,26-8.72,32.8-22.3,4.88-9.82,7-20.43,9-31.26C120.1,55.14,109.88,60,101.19,67.47,89.9,77.18,84.84,89.34,87,104.44ZM460.11,313.05c-6.25-.78-12-1.63-17.83-2.21a61.11,61.11,0,0,0-23.18,1.6c-12.1,3.46-19.85,11.62-24.77,22.95,0.35,0.23.59,0.42,0.85,0.56q17.72,9.23,35.74.6C442.31,331.12,451.11,322.47,460.11,313.05ZM21,269.89c6.06,9.58,12.19,18.37,20.37,25.5,7.64,6.66,16.27,11,26.7,11a39.9,39.9,0,0,0,13.09-2.1,4.21,4.21,0,0,0,0-.75C78,290,70.49,280.29,57.35,275.17a71.06,71.06,0,0,0-19.63-4.33C32.33,270.36,26.91,270.21,21,269.89ZM191.29,377a2.25,2.25,0,0,0-.33-0.47c-12.21-9.94-25.64-12.28-40.41-6.59-10.07,3.88-18.72,10.07-27.27,16.45a1.3,1.3,0,0,0-.22.47c1.3,0.46,2.52.91,3.76,1.33,10.3,3.48,20.7,6.36,31.72,6.23C172.48,394.3,183.35,388.47,191.29,377ZM80.84,352l-0.29.73c7,4.11,13.75,8.56,20.93,12.25,9.12,4.69,18.86,7.18,29.25,5.38a39.12,39.12,0,0,0,18.53-8.94c-1.12-1.45-2.09-2.81-3.17-4.09-7.22-8.62-16.34-13.46-27.69-13.87C105.12,343,93,347.51,80.84,352Zm41.58-251.43a2.32,2.32,0,0,0-.68-0.06c-10.47,3.16-20.75,6.77-29.89,12.95-8.13,5.5-14.33,12.54-17,22.24a40.55,40.55,0,0,0-1.42,13.55c2.83-.16,5.5-0.23,8.16-0.48a35.15,35.15,0,0,0,23.65-11.87C114.49,126.54,118.44,113.62,122.43,100.61Zm261.06-.92c2.87,9.76,5.8,19,10.65,27.48s11.05,15.25,20.31,18.83a45.37,45.37,0,0,0,18.25,2.68c0.4-12-3.24-22.12-11.89-30.31-6.69-6.33-14.69-10.47-23.19-13.72C393.06,102.91,388.4,101.41,383.48,99.7Zm103,71.82c-9.89,5.75-19.08,11.37-26.64,19.27-11,11.47-13.89,24.76-9.29,39.89a13.07,13.07,0,0,0,1.35-.17q18.92-4.42,27.17-22c3.66-7.82,5.35-16.17,6.36-24.67C485.88,179.89,486.1,175.92,486.47,171.51ZM337.27,361.78c0.37-.14.73-0.24,1.05-0.39,13.84-6.46,21.08-17.65,22.95-32.5,1.36-10.84.24-21.61-1.62-32.47a7.65,7.65,0,0,0-.68.49c-6.79,6.2-13.4,12.57-18.74,20.12-4.83,6.84-8.24,14.27-8.67,22.75C331.15,347.64,333.45,354.9,337.27,361.78Zm-168.53.5c6.16-11.28,7.82-22.72,2.7-34.74-3.25-7.65-8.26-14.07-13.92-20-3.51-3.69-7.26-7.15-11.16-11-0.39,2.83-.74,5.21-1.06,7.59-1.3,9.82-1.83,19.65.18,29.43C148.24,347,155.9,356.62,168.74,362.27ZM67.15,131.58l2.19-2.07c8.47-8.13,12.83-18,12.16-29.8C81,91,78.22,82.88,74.64,75c-1.94-4.25-4.08-8.41-6.27-12.9-1.71,3.28-3.31,6.18-4.75,9.14-4.64,9.5-8.47,19.23-9,30C54,113.31,58.5,123.23,67.15,131.58ZM46.28,313.68a5.33,5.33,0,0,0,.44.65c6.34,6.75,13,13.2,20.72,18.32,9.08,6,18.81,9.72,30,8.15a41.57,41.57,0,0,0,14.18-4.8c-1.09-3.77-5.17-10.12-8.71-13.74-7.87-8-17.81-10.86-28.64-11.33C64.84,310.53,55.62,312,46.28,313.68Zm366.27-121c-0.2.77-.37,1.28-0.45,1.8-0.94,5.9-2.09,11.78-2.73,17.72-1,8.88-.67,17.7,2.72,26.16C416,248.2,423.42,254.52,432.8,259c6-10.47,7.57-21.25,3.63-32.66C431.79,212.83,422.37,202.79,412.56,192.71ZM40.36,114.79c-1,3.43-1.92,6.51-2.72,9.63-2.58,10.06-4.35,20.19-2.88,30.67,1.73,12.26,8.19,21.28,18.5,27.83q14.8-19.32,5-41.47C53.93,131.64,47.37,123.33,40.36,114.79ZM382.5,269c-4.8,8.57-9.18,17-11.91,26.2A46,46,0,0,0,368.72,314c1.2,9.82,6.24,17.6,13.49,24.17,0.3-.26.58-0.5,0.84-0.75C394,327,397.31,314.26,394.49,299.67,392.38,288.78,387.74,278.88,382.5,269ZM466,114.53l-0.78,0c-3.68,5-7.54,9.78-11,14.89-5,7.32-8.87,15.11-10.06,24.07-1.46,11,2.09,20.33,8.49,28.93,12.52-7.53,18.14-18.56,18.81-30.41a79.67,79.67,0,0,0-.79-16.75C469.61,128.25,467.63,121.42,466,114.53ZM356.79,361c10.17,8.38,21.49,11.23,34.21,8.4,9.89-2.2,18.59-7,26.95-12.53,2.46-1.62,4.86-3.34,7.29-5l0-.75c-7.67-2.28-15.26-4.86-23-6.75a47,47,0,0,0-22.42-.29C369.83,346.53,362.64,352.69,356.79,361ZM243.69,384.6a9.23,9.23,0,1,0,9.27-9.1A9.28,9.28,0,0,0,243.69,384.6Z" transform="translate(-12.51 -49.62)"/><path class="cls-1" d="M493,226.85c-3,5.45-5.82,11-9,16.33-4.72,7.81-10.51,14.72-18.36,19.66a36.81,36.81,0,0,1-24.52,5.34c-0.62-.07-1.25-0.08-1.86-0.18s-1.21-.27-1.9-0.43c1.48-16,9.46-27.17,24.17-33.56,8.36-3.63,17.18-5.43,26.14-6.72l5.36-.8v0.38Z" transform="translate(-12.51 -49.62)"/><path class="cls-1" d="M196.76,411.73c-3.82-.52-7.67-0.88-11.45-1.58-5.05-.94-10.06-2.14-15.08-3.22l-0.19-.59c4.88-3.94,9.65-8,14.68-11.78,6.18-4.61,12.86-8.35,20.43-10.25,11.8-3,22.39-.13,32.29,6.75-4.63,8.13-10.87,14.34-19.61,17.51-3.87,1.41-8.08,1.87-12.14,2.77l-1.8.41h-7.12Z" transform="translate(-12.51 -49.62)"/><path class="cls-1" d="M13,226.85c6.3,1.14,12.66,2.07,18.9,3.48,8.19,1.85,15.94,4.83,22.68,10.09,7.57,5.9,11.69,13.76,13.47,23,0.28,1.46.45,2.94,0.73,4.84-2.94.2-5.83,0.54-8.72,0.58-12.52.14-22.2-5.65-30.28-14.69-6.54-7.33-11.21-15.85-15.56-24.57-0.35-.69-0.81-1.33-1.22-2Q13,227.23,13,226.85Z" transform="translate(-12.51 -49.62)"/><path class="cls-1" d="M103.05,240.15c3.7,11.51,7.18,22.66,7.05,34.58-0.14,12.56-5.08,22.68-15,30.36-0.79.61-1.6,1.19-2.42,1.76-0.66.46-1.35,0.88-2.18,1.42a40.84,40.84,0,0,1-6.94-13.53c-2.63-8.82-1.49-17.43,1.69-25.83C89.25,258.28,95.82,249.19,103.05,240.15Z" transform="translate(-12.51 -49.62)"/><path class="cls-1" d="M268.59,390.61c13.18-9.22,26.83-10.44,41.14-3.53,9,4.33,16.61,10.56,24,17.11l2.44,2.14c-4.77,1.08-9.2,2.18-13.67,3.08a78.17,78.17,0,0,1-22.13,1.52C286.31,409.69,275.68,403.07,268.59,390.61Z" transform="translate(-12.51 -49.62)"/><path class="cls-1" d="M484.62,270c-6.56,10.25-13.49,20.21-23.4,27.66-11,8.3-23.16,10.38-36.72,6.11,0.93-2.83,1.69-5.65,2.77-8.33,4.66-11.51,13.42-18.44,25.06-22a81.33,81.33,0,0,1,21-3.38C477,269.89,480.75,270,484.62,270Z" transform="translate(-12.51 -49.62)"/><path class="cls-1" d="M61.24,208.06c-3.56-11.45-2.57-22.3,3.77-32.53,5.65-9.11,13.71-15.77,22.38-21.79,2.66-1.85,5.39-3.59,8.3-5.51a6.7,6.7,0,0,1,.15,1C95.5,160,95,170.67,91.75,181c-4.64,14.61-14.54,23.44-29.34,27A7.42,7.42,0,0,1,61.24,208.06Z" transform="translate(-12.51 -49.62)"/><path class="cls-1" d="M231.34,375.86c-15.94,1.94-28.17-3.89-37.69-16-6.71-8.52-11.12-18.29-15.09-28.27a1.46,1.46,0,0,1,0-.47c13.38,2.88,26.73,5.7,38,14.22a35.58,35.58,0,0,1,13.88,23.37C230.84,371.05,231,373.41,231.34,375.86Z" transform="translate(-12.51 -49.62)"/><path class="cls-1" d="M123.34,269.1c6.52,11.7,12.49,22.94,14,35.82,1.58,13.54-3.4,24.65-13.55,33.71-6.36-5.87-10.81-12.76-12.46-21.28-2.07-10.69.31-20.84,4.18-30.7C117.78,280.88,120.56,275.3,123.34,269.1Z" transform="translate(-12.51 -49.62)"/><path class="cls-1" d="M403,239.65c8.84,11.31,16.93,22.54,20.08,36.54a38.22,38.22,0,0,1-7.57,31.61c-10.56-6.62-17.65-15.54-19.2-28.3-1.31-10.72,1-21,3.94-31.11C401,245.6,402,242.84,403,239.65Z" transform="translate(-12.51 -49.62)"/><path class="cls-1" d="M73.2,259.34c-7-12.11-7.62-24.45-1.84-37.12,5.15-11.29,13.4-20.17,22.23-29.17,0.91,5.12,2,9.84,2.53,14.63a121.37,121.37,0,0,1,.79,16.25c-0.46,15.77-7.73,27.41-21.88,34.61l-1.5.76A1.46,1.46,0,0,1,73.2,259.34Z" transform="translate(-12.51 -49.62)"/><path class="cls-1" d="M55.72,231.29c-12-2.5-21.09-8.51-27-19-4.48-7.94-6.6-16.61-7.75-25.55-0.61-4.75-1-9.53-1.51-14.88,3.15,1.89,5.81,3.44,8.42,5.07,7.87,4.9,15.35,10.3,21.2,17.62,6.39,8,9.49,17,8.22,27.31C56.9,225,56.26,228.07,55.72,231.29Z" transform="translate(-12.51 -49.62)"/><path class="cls-1" d="M445.11,207.84c-14-3-23.92-10.24-29.31-23.17-3.43-8.22-4.64-16.89-5.19-25.68-0.22-3.6,0-7.23,0-10.88-0.11,0,.12,0,0.3.08,9,5.63,17.71,11.69,24.81,19.72s11.63,17.4,11.08,28.5C446.57,200.16,445.7,203.88,445.11,207.84Z" transform="translate(-12.51 -49.62)"/><path class="cls-1" d="M437.78,62c5.35,9.66,10.28,19.5,12.57,30.43,3.13,14.89-.17,27.91-11.49,38.67-7.72-6.93-13.11-15-14.17-25.65a47,47,0,0,1,2.91-21.11c2.82-7.62,6.34-15,9.55-22.47Z" transform="translate(-12.51 -49.62)"/><path class="cls-1" d="M327.66,330.65c-4.14,10.37-8.56,20.25-15.36,28.85-6.27,7.91-14,13.64-24.1,15.62-4.39.86-8.79,0.67-13.38,0.44A45.13,45.13,0,0,1,278,359.74c3.59-8.8,10.09-14.85,18.32-19.23,8.55-4.56,17.82-7,27.21-9Z" transform="translate(-12.51 -49.62)"/><path class="cls-1" d="M419,103.93c-11.35-.61-21.07-4.28-28.51-13C385,84.53,381.81,77,379.56,69c-1.72-6.08-2.95-12.31-4.4-18.47l0.41-.36c4.19,2,8.43,3.81,12.55,5.91C395.83,60,403,64.67,409,71.07,417.63,80.32,420.71,91.22,419,103.93Z" transform="translate(-12.51 -49.62)"/><path class="cls-1" d="M314.66,376.49a43.31,43.31,0,0,1,16.7-8.93,37.15,37.15,0,0,1,20.82.86c11.63,3.61,21.29,10.66,31.09,17.95-9.87,3.49-19.54,6.54-29.8,7.43-9,.78-17.54-0.28-25.49-4.73A40.24,40.24,0,0,1,314.66,376.49Z" transform="translate(-12.51 -49.62)"/><path class="cls-1" d="M87,104.44c-2.2-15.1,2.86-27.26,14.14-37,8.7-7.49,18.92-12.33,29.53-16.79-2,10.83-4.15,21.44-9,31.26-6.76,13.59-17.58,21.17-32.8,22.3C88.33,104.28,87.78,104.36,87,104.44Z" transform="translate(-12.51 -49.62)"/><path class="cls-1" d="M460.11,313.05c-9,9.42-17.81,18.06-29.19,23.49q-18,8.58-35.74-.6c-0.27-.14-0.51-0.33-0.85-0.56,4.92-11.33,12.67-19.48,24.77-22.95a61.11,61.11,0,0,1,23.18-1.6C448.09,311.43,453.87,312.27,460.11,313.05Z" transform="translate(-12.51 -49.62)"/><path class="cls-1" d="M21,269.89c5.87,0.32,11.29.47,16.68,1a71.06,71.06,0,0,1,19.63,4.33C70.49,280.29,78,290,81.2,303.53a4.21,4.21,0,0,1,0,.75,39.9,39.9,0,0,1-13.09,2.1c-10.43,0-19.06-4.33-26.7-11C33.23,288.26,27.1,279.47,21,269.89Z" transform="translate(-12.51 -49.62)"/><path class="cls-1" d="M191.29,377c-7.94,11.43-18.8,17.26-32.75,17.42-11,.13-21.42-2.74-31.72-6.23-1.24-.42-2.46-0.87-3.76-1.33a1.3,1.3,0,0,1,.22-0.47c8.55-6.38,17.2-12.57,27.27-16.45,14.77-5.69,28.2-3.35,40.41,6.59A2.25,2.25,0,0,1,191.29,377Z" transform="translate(-12.51 -49.62)"/><path class="cls-1" d="M80.84,352c12.13-4.54,24.27-9,37.56-8.54,11.35,0.41,20.47,5.25,27.69,13.87,1.07,1.28,2.05,2.65,3.17,4.09a39.12,39.12,0,0,1-18.53,8.94c-10.39,1.8-20.13-.69-29.25-5.38-7.18-3.69-14-8.14-20.93-12.25Z" transform="translate(-12.51 -49.62)"/><path class="cls-1" d="M122.43,100.61c-4,13-7.93,25.93-17.23,36.32a35.15,35.15,0,0,1-23.65,11.87c-2.65.25-5.32,0.32-8.16,0.48a40.55,40.55,0,0,1,1.42-13.55c2.71-9.69,8.91-16.73,17-22.24,9.14-6.18,19.42-9.79,29.89-12.95A2.32,2.32,0,0,1,122.43,100.61Z" transform="translate(-12.51 -49.62)"/><path class="cls-1" d="M383.48,99.7c4.92,1.72,9.57,3.22,14.13,5,8.5,3.25,16.5,7.39,23.19,13.72,8.65,8.19,12.3,18.32,11.89,30.31A45.37,45.37,0,0,1,414.45,146c-9.26-3.58-15.51-10.46-20.31-18.83S386.35,109.46,383.48,99.7Z" transform="translate(-12.51 -49.62)"/><path class="cls-1" d="M486.47,171.51c-0.37,4.41-.59,8.38-1.05,12.32-1,8.5-2.7,16.85-6.36,24.67q-8.23,17.59-27.17,22a13.07,13.07,0,0,1-1.35.17c-4.6-15.13-1.66-28.43,9.29-39.89C467.39,182.88,476.58,177.26,486.47,171.51Z" transform="translate(-12.51 -49.62)"/><path class="cls-1" d="M337.27,361.78c-3.82-6.88-6.12-14.13-5.72-22,0.43-8.48,3.85-15.91,8.67-22.75,5.33-7.55,11.95-13.92,18.74-20.12a7.65,7.65,0,0,1,.68-0.49c1.87,10.85,3,21.62,1.62,32.47-1.86,14.85-9.11,26-22.95,32.5C338,361.54,337.65,361.64,337.27,361.78Z" transform="translate(-12.51 -49.62)"/><path class="cls-1" d="M168.74,362.27c-12.83-5.65-20.5-15.24-23.26-28.71-2-9.78-1.48-19.61-.18-29.43,0.32-2.38.66-4.76,1.06-7.59,3.91,3.83,7.65,7.29,11.16,11,5.66,5.94,10.67,12.37,13.92,20C176.55,339.55,174.9,351,168.74,362.27Z" transform="translate(-12.51 -49.62)"/><path class="cls-1" d="M67.15,131.58c-8.65-8.35-13.1-18.26-12.53-30.33,0.51-10.76,4.35-20.49,9-30,1.45-3,3-5.86,4.75-9.14,2.19,4.48,4.33,8.65,6.27,12.9C78.22,82.88,81,91,81.5,99.71c0.67,11.82-3.69,21.67-12.16,29.8Z" transform="translate(-12.51 -49.62)"/><path class="cls-1" d="M46.28,313.68c9.33-1.65,18.55-3.15,27.94-2.75,10.83,0.47,20.77,3.31,28.64,11.33,3.55,3.61,7.62,10,8.71,13.74a41.57,41.57,0,0,1-14.18,4.8c-11.15,1.57-20.88-2.17-30-8.15-7.77-5.12-14.38-11.57-20.72-18.32A5.33,5.33,0,0,1,46.28,313.68Z" transform="translate(-12.51 -49.62)"/><path class="cls-1" d="M412.56,192.71c9.81,10.09,19.23,20.12,23.88,33.59,3.94,11.41,2.36,22.19-3.63,32.66-9.38-4.44-16.78-10.75-20.71-20.57-3.38-8.46-3.67-17.29-2.72-26.16,0.64-5.93,1.79-11.81,2.73-17.72C412.19,194,412.36,193.48,412.56,192.71Z" transform="translate(-12.51 -49.62)"/><path class="cls-1" d="M40.36,114.79c7,8.54,13.57,16.85,17.91,26.65q9.82,22.19-5,41.47c-10.31-6.55-16.78-15.57-18.5-27.83-1.47-10.47.3-20.6,2.88-30.67C38.44,121.3,39.38,118.22,40.36,114.79Z" transform="translate(-12.51 -49.62)"/><path class="cls-1" d="M382.5,269c5.23,9.93,9.88,19.83,12,30.72C397.31,314.26,394,327,383,337.42c-0.26.25-.55,0.49-0.84,0.75C375,331.6,369.92,323.82,368.72,314a46,46,0,0,1,1.88-18.85C373.33,286,377.71,277.52,382.5,269Z" transform="translate(-12.51 -49.62)"/><path class="cls-1" d="M466,114.53c1.6,6.89,3.57,13.72,4.67,20.69a79.67,79.67,0,0,1,.79,16.75c-0.67,11.85-6.29,22.88-18.81,30.41-6.4-8.6-9.94-18-8.49-28.93,1.19-9,5.11-16.75,10.06-24.07,3.46-5.1,7.32-9.93,11-14.89Z" transform="translate(-12.51 -49.62)"/><path class="cls-1" d="M356.79,361c5.85-8.35,13-14.52,23-16.93a47,47,0,0,1,22.42.29c7.76,1.9,15.36,4.47,23,6.75l0,0.75c-2.43,1.67-4.83,3.39-7.29,5-8.36,5.51-17.05,10.32-26.95,12.53C378.28,372.28,367,369.43,356.79,361Z" transform="translate(-12.51 -49.62)"/><path class="cls-1" d="M243.69,384.6a9.23,9.23,0,1,1,9.09,9.44A9.35,9.35,0,0,1,243.69,384.6Z" transform="translate(-12.51 -49.62)"/></svg>